<svg xmlns="http://www.w3.org/2000/svg" viewBox="0 0 2305 686" role="img" aria-labelledby="t"><title id="t">Ramaiah Institute of Technology</title><defs><linearGradient id="g" gradientUnits="userSpaceOnUse" x1="5225.9" y1="5565.2" x2="359.6" y2="1743.3"><stop offset="0.00" stop-color="#dd3e10"/><stop offset="0.25" stop-color="#dd3e10"/><stop offset="0.50" stop-color="#d2381c"/><stop offset="0.75" stop-color="#bc2d35"/><stop offset="1.00" stop-color="#971b5f"/></linearGradient></defs><path fill="url(#g)" transform="translate(0.000000,686.000000) scale(0.100000,-0.100000)" d="M2430 6834 c-25 -2 -119 -8 -210 -14 -724 -49 -1475 -228 -2077 -497 l-103 -46 0 -213 c0 -118 4 -214 8 -214 5 0 74 31 153 69 559 266 1192 432 1939 508 139 14 264 18 615 17 429 0 509 -4 823 -41 l52 -6 0 195 0 196 -52 6 c-210 25 -426 37 -743 40 -198 2 -380 2 -405 0z M1878 5965 c-209 -34 -476 -118 -764 -240 -318 -135 -453 -216 -606 -363 -221 -214 -360 -492 -437 -877 -59 -293 -65 -397 -66 -1060 0 -638 2 -674 51 -905 174 -814 810 -1576 1783 -2134 261 -150 723 -368 809 -382 32 -5 59 3 167 51 844 373 1463 831 1873 1386 87 117 193 281 187 287 -10 10 -352 -197 -945 -571 -656 -415 -1124 -696 -1136 -684 -8 8 52 143 98 222 153 263 383 470 783 707 190 112 254 146 839 438 l571 285 38 95 c41 102 90 272 85 295 -2 9 -122 -40 -403 -166 -950 -427 -1241 -575 -1548 -785 -378 -260 -630 -558 -792 -939 -26 -60 -48 -111 -50 -113 -4 -4 -265 126 -265 132 0 23 84 237 130 331 192 395 512 699 1072 1021 289 167 726 375 1468 700 l415 182 7 38 c10 56 22 364 15 364 -24 0 -1035 -452 -1399 -625 -1148 -547 -1637 -949 -1979 -1630 l-83 -163 -45 31 c-25 17 -86 60 -136 96 -49 35 -92 66 -93 67 -8 5 83 204 135 299 118 213 247 377 449 575 282 276 604 499 1099 762 291 155 530 266 1340 623 253 112 517 229 588 261 l127 57 0 209 c0 114 -4 208 -9 208 -5 0 -87 -36 -182 -81 -96 -45 -410 -186 -699 -314 -691 -307 -841 -375 -1115 -511 -679 -336 -1120 -629 -1466 -974 -247 -247 -401 -463 -525 -737 -23 -52 -44 -97 -47 -100 -7 -6 -137 117 -187 177 l-40 47 25 74 c37 109 124 280 199 392 291 435 767 809 1564 1231 324 172 661 329 1517 709 242 107 532 239 645 292 113 53 231 109 263 123 l57 25 0 219 c0 120 -4 218 -9 218 -4 0 -57 -23 -117 -51 -60 -28 -376 -168 -703 -311 -1190 -520 -1724 -780 -2251 -1096 -621 -372 -1044 -732 -1293 -1101 -54 -80 -151 -268 -162 -314 -4 -15 -10 -27 -14 -27 -10 0 -92 151 -131 242 l-33 76 66 137 c229 470 515 736 1297 1207 645 388 1070 592 2372 1139 478 201 822 350 928 404 l50 25 0 210 c0 116 -2 210 -5 210 -3 0 -119 -52 -258 -116 -338 -156 -542 -247 -1122 -501 -689 -302 -918 -406 -1249 -571 -483 -239 -883 -468 -1291 -736 -111 -73 -194 -121 -199 -116 -16 16 11 483 35 595 54 262 168 405 439 553 59 32 1072 472 1913 830 l107 46 0 198 c0 109 -2 198 -4 198 -3 0 -186 -78 -408 -174 -222 -95 -413 -176 -424 -180 -19 -6 -27 2 -54 51 -51 90 -153 184 -252 231 -46 22 -112 48 -148 57 -90 23 -346 29 -462 10z m374 -354 c31 -12 76 -37 100 -55 50 -39 85 -91 65 -99 -131 -54 -888 -387 -957 -422 -465 -232 -638 -465 -696 -935 -10 -82 -17 -260 -21 -515 l-6 -389 -59 -71 c-93 -111 -184 -243 -232 -334 l-44 -84 -7 264 c-11 401 -1 1062 18 1184 63 402 185 683 394 905 73 78 190 175 279 232 164 105 606 282 822 329 116 25 263 21 344 -10z"/><path fill="#de3e0f" transform="translate(0.000000,686.000000) scale(0.100000,-0.100000)" d="M4161 6792 c-58 -37 -106 -72 -108 -77 -2 -6 42 -80 96 -165 l100 -155 -195 -3 -194 -2 0 -140 0 -140 194 -2 195 -3 -100 -154 c-55 -85 -98 -159 -96 -164 5 -16 217 -148 227 -142 4 3 57 81 117 175 80 126 111 166 119 157 6 -7 55 -82 109 -167 54 -85 102 -159 106 -164 7 -8 239 129 239 140 0 2 -45 74 -100 159 -55 86 -100 158 -100 160 0 3 86 5 190 5 l190 0 0 140 0 140 -190 0 c-104 0 -190 2 -190 5 0 3 45 75 100 160 55 86 100 157 100 159 0 5 -202 134 -221 141 -11 4 -45 -40 -128 -170 l-113 -176 -57 88 c-31 48 -81 127 -111 175 -30 48 -59 87 -65 87 -5 0 -57 -30 -114 -67z"/><path fill="currentColor" transform="translate(0.000000,686.000000) scale(0.100000,-0.100000)" d="M8772 4807 c-205 -480 -372 -876 -372 -880 0 -4 89 -7 199 -7 l199 0 72 178 c40 97 75 185 78 195 4 16 30 17 371 17 l366 0 79 -195 79 -195 204 0 c191 0 205 1 200 18 -2 9 -168 400 -367 867 -199 468 -364 856 -367 863 -4 9 -51 12 -188 12 l-182 0 -371 -873z m657 131 c57 -139 105 -259 108 -265 4 -10 -43 -13 -217 -13 -124 0 -220 4 -218 9 34 92 214 521 218 521 3 0 52 -114 109 -252z M13087 4818 c-202 -475 -369 -871 -373 -880 -6 -17 8 -18 194 -18 l200 0 26 63 c14 34 50 121 79 192 l53 130 365 3 364 2 79 -195 79 -195 204 0 c111 0 203 4 203 9 0 7 -520 1235 -705 1664 l-37 87 -182 0 -183 0 -366 -862z m656 110 c59 -144 105 -263 103 -265 -1 -2 -100 -2 -219 -1 l-216 3 107 262 c59 145 109 263 112 263 4 0 54 -118 113 -262z M16078 4818 c-202 -475 -370 -871 -374 -881 -6 -16 6 -17 196 -15 l202 3 77 190 78 190 365 3 365 2 78 -195 79 -195 204 0 204 0 -6 23 c-3 12 -170 407 -370 877 l-364 855 -184 3 -183 2 -367 -862z m759 -154 c-2 -3 -101 -3 -220 -2 l-215 3 37 90 c21 50 70 170 111 268 l73 178 109 -267 c60 -146 107 -268 105 -270z M6660 4795 l0 -875 195 0 195 0 0 280 0 280 145 0 145 0 187 -280 186 -280 229 0 c125 0 228 2 228 5 0 3 -95 144 -210 312 l-210 307 76 40 c91 47 178 130 221 212 46 87 65 172 65 294 0 268 -120 447 -357 533 -118 42 -185 47 -654 47 l-441 0 0 -875z m829 515 c132 -22 211 -92 226 -201 11 -80 -10 -145 -65 -200 -72 -72 -107 -79 -377 -79 l-223 0 0 245 0 245 188 0 c103 0 216 -5 251 -10z M10610 4795 l0 -875 190 0 190 0 2 556 3 555 234 -356 c147 -223 239 -355 248 -353 8 2 120 163 248 358 l235 355 0 -557 0 -558 195 0 195 0 0 875 0 875 -209 0 -209 0 -224 -360 c-122 -198 -225 -360 -228 -360 -3 1 -105 161 -226 358 l-221 357 -212 3 -211 2 0 -875z M14940 4795 l0 -875 195 0 195 0 0 875 0 875 -195 0 -195 0 0 -875z M17910 4795 l0 -875 195 0 195 0 0 350 0 350 350 0 350 0 0 -350 0 -350 195 0 195 0 0 875 0 875 -195 0 -195 0 0 -345 0 -345 -350 0 -350 0 0 345 0 345 -195 0 -195 0 0 -875z M14081 3236 c-91 -30 -141 -112 -141 -233 l0 -63 -50 0 -50 0 0 -85 0 -85 50 0 50 0 0 -315 0 -315 95 0 95 0 0 315 0 315 100 0 100 0 0 80 0 80 -105 0 -105 0 0 30 c0 37 21 90 44 109 18 15 72 19 129 7 l37 -7 0 79 c0 67 -3 81 -17 87 -37 15 -187 15 -232 1z M17250 2690 l0 -550 95 0 95 0 0 253 c0 224 2 257 19 293 26 57 72 87 140 92 72 4 117 -19 148 -78 22 -42 23 -52 23 -302 l0 -258 95 0 95 0 0 293 c0 168 -4 308 -10 329 -19 68 -70 130 -133 162 -49 25 -70 30 -135 30 -91 0 -149 -22 -205 -78 l-37 -37 0 201 0 200 -95 0 -95 0 0 -550z M20000 2690 l0 -550 95 0 95 0 0 550 0 550 -95 0 -95 0 0 -550z M9310 3140 l0 -90 100 0 100 0 0 90 0 90 -100 0 -100 0 0 -90z M6690 2670 l0 -530 95 0 95 0 0 530 0 530 -95 0 -95 0 0 -530z M14680 3110 l0 -90 165 0 165 0 0 -440 0 -440 95 0 95 0 0 440 0 440 165 0 165 0 0 90 0 90 -425 0 -425 0 0 -90z M8760 3050 l0 -110 -50 0 -50 0 0 -85 0 -85 50 0 50 0 0 -232 c0 -139 5 -249 11 -273 15 -53 73 -110 129 -125 56 -15 172 -8 223 13 l37 16 0 82 c0 73 -2 80 -17 74 -45 -19 -96 -27 -127 -21 -63 12 -66 26 -66 258 l0 208 105 0 105 0 0 85 0 85 -105 0 -105 0 0 110 0 110 -95 0 -95 0 0 -110z M9740 3050 l0 -110 -50 0 -50 0 0 -85 0 -85 49 0 49 0 4 -247 c3 -265 6 -280 61 -340 48 -53 208 -69 300 -30 l37 16 0 80 0 80 -41 -14 c-61 -22 -103 -19 -136 9 l-28 24 -3 211 -3 211 105 0 106 0 0 85 0 85 -105 0 -105 0 0 110 0 110 -95 0 -95 0 0 -110z M11220 3050 l0 -110 -50 0 -50 0 0 -85 0 -85 49 0 49 0 4 -247 c3 -233 5 -251 25 -290 41 -77 113 -108 232 -101 44 3 90 12 109 22 l32 17 0 79 0 79 -41 -14 c-61 -22 -103 -19 -136 9 l-28 24 -3 211 -3 211 105 0 106 0 0 85 0 85 -105 0 -105 0 0 110 0 110 -95 0 -95 0 0 -110z M7460 2947 c-56 -16 -113 -50 -140 -84 l-20 -26 0 52 0 51 -95 0 -95 0 0 -400 0 -400 95 0 95 0 0 258 c0 247 1 258 23 296 33 57 67 79 134 84 48 3 64 0 92 -20 76 -52 76 -48 79 -349 l3 -269 94 0 95 0 0 288 c0 317 -5 355 -59 429 -56 77 -197 119 -301 90z M12030 2947 c-119 -28 -204 -97 -261 -213 -33 -67 -34 -72 -34 -194 0 -115 2 -130 27 -183 37 -79 115 -158 188 -191 103 -46 264 -50 360 -8 54 23 150 97 150 115 0 7 -25 35 -55 61 l-56 48 -36 -32 c-52 -47 -99 -63 -174 -64 -88 0 -151 36 -191 109 -15 28 -28 56 -28 62 0 10 67 13 288 15 l287 3 3 39 c10 117 -54 284 -135 355 -81 72 -219 104 -333 78z m148 -162 c63 -27 108 -83 126 -157 l6 -28 -195 0 c-217 0 -209 -3 -179 68 20 49 60 90 109 113 49 23 84 24 133 4z M13242 2949 c-270 -45 -421 -346 -297 -595 61 -125 180 -209 314 -223 238 -24 422 96 477 309 60 237 -94 472 -336 510 -74 11 -84 11 -158 -1z m186 -188 c112 -57 163 -220 106 -333 -30 -60 -85 -108 -143 -125 -126 -36 -249 34 -288 166 -60 208 139 387 325 292z M15810 2947 c-119 -28 -204 -97 -261 -213 -33 -67 -34 -72 -34 -194 0 -115 2 -130 27 -183 37 -79 115 -158 188 -191 103 -46 264 -50 360 -8 54 23 150 97 150 115 0 7 -25 35 -55 61 l-56 48 -36 -32 c-52 -47 -99 -63 -174 -64 -88 0 -151 36 -191 109 -15 28 -28 56 -28 62 0 10 67 13 288 15 l287 3 3 39 c10 117 -54 284 -135 355 -81 72 -219 104 -333 78z m148 -162 c63 -27 108 -83 126 -157 l6 -28 -195 0 c-217 0 -209 -3 -179 68 20 49 60 90 109 113 49 23 84 24 133 4z M16718 2950 c-156 -27 -292 -157 -327 -311 -36 -154 19 -326 136 -423 111 -93 308 -117 446 -53 51 23 147 100 147 117 0 4 -27 31 -60 59 l-60 53 -35 -31 c-103 -91 -232 -92 -317 -3 -58 60 -73 97 -73 182 0 66 4 82 31 130 44 78 106 115 188 115 65 -1 104 -16 167 -67 l36 -29 56 58 c31 32 57 64 57 70 0 20 -96 90 -152 111 -63 23 -175 34 -240 22z M18500 2947 c-58 -16 -112 -49 -145 -88 l-25 -31 0 56 0 56 -95 0 -95 0 0 -400 0 -400 95 0 95 0 0 225 c0 124 5 247 11 275 33 155 225 193 303 60 20 -32 21 -54 24 -297 l3 -263 95 0 95 0 -3 308 c-3 297 -4 309 -26 353 -29 59 -77 107 -127 130 -55 24 -150 32 -205 16z M19323 2945 c-87 -19 -155 -59 -218 -127 -78 -84 -99 -145 -100 -283 0 -99 3 -116 27 -168 79 -169 246 -256 452 -235 227 23 395 247 357 475 -31 181 -165 313 -347 343 -74 12 -94 12 -171 -5z m168 -170 c65 -23 105 -59 135 -121 61 -125 18 -276 -96 -334 -97 -49 -187 -34 -266 44 -180 181 -8 494 227 411z M20692 2949 c-130 -22 -239 -105 -299 -227 -37 -74 -38 -79 -38 -181 1 -135 23 -196 102 -281 96 -104 224 -147 381 -128 220 26 382 231 357 452 -28 248 -250 409 -503 365z m151 -173 c96 -35 160 -125 161 -231 1 -83 -25 -145 -81 -194 -145 -128 -362 -32 -380 169 -16 177 142 312 300 256z M21591 2949 c-192 -38 -317 -231 -282 -435 16 -88 46 -149 101 -204 69 -70 126 -93 242 -98 87 -4 102 -2 151 21 30 13 74 42 97 63 l43 39 -6 -63 c-15 -143 -95 -212 -246 -212 -78 0 -146 17 -218 53 -29 15 -55 27 -58 27 -6 0 -78 -141 -73 -145 15 -13 97 -47 158 -66 108 -34 295 -34 393 0 84 28 165 99 195 169 35 81 42 164 42 510 l0 332 -95 0 -95 0 0 -51 0 -50 -42 34 c-58 47 -93 63 -163 76 -66 12 -82 12 -144 0z m225 -180 c161 -77 164 -291 5 -371 -73 -37 -138 -37 -210 -2 -70 35 -103 86 -109 165 -7 101 36 177 123 215 47 21 142 17 191 -7z M8154 2940 c-55 -17 -126 -73 -148 -115 -16 -31 -21 -59 -21 -122 0 -76 2 -84 31 -120 42 -51 88 -76 223 -119 155 -48 194 -92 137 -149 -57 -57 -185 -39 -320 44 l-35 22 -41 -61 c-23 -34 -39 -67 -37 -75 8 -21 160 -92 224 -105 31 -7 94 -10 140 -8 105 6 182 42 228 106 26 38 30 54 34 123 3 71 0 83 -23 124 -34 57 -94 93 -238 140 -104 35 -158 69 -158 99 0 8 11 28 24 43 22 26 30 28 93 27 54 -1 83 -8 141 -34 42 -19 76 -29 81 -24 4 5 22 35 40 66 l32 58 -33 20 c-72 44 -140 63 -243 66 -55 2 -114 -1 -131 -6z M9320 2540 l0 -400 95 0 95 0 0 400 0 400 -95 0 -95 0 0 -400z M10282 2633 c4 -342 5 -346 73 -422 54 -60 121 -84 219 -79 95 4 142 24 198 81 l38 39 0 -56 0 -56 95 0 95 0 0 400 0 400 -94 0 -94 0 -4 -252 c-3 -248 -3 -254 -28 -298 -33 -60 -95 -93 -163 -87 -60 5 -95 30 -124 87 -22 42 -23 55 -23 297 l0 253 -96 0 -95 0 3 -307z M22240 2936 c0 -2 70 -172 156 -377 86 -206 160 -385 165 -398 8 -20 4 -29 -30 -62 -43 -43 -65 -47 -131 -24 -23 8 -44 15 -46 15 -5 0 -64 -130 -64 -141 0 -5 32 -18 71 -30 144 -44 264 -11 329 91 33 51 359 880 360 913 0 15 -11 17 -94 17 l-94 0 -30 -82 c-16 -46 -60 -172 -98 -281 -48 -138 -72 -194 -78 -184 -5 8 -54 133 -110 278 l-101 264 -103 3 c-56 1 -102 1 -102 -2z"/></svg>
